<svg id="Calque_1" data-name="Calque 1" xmlns="http://www.w3.org/2000/svg" viewBox="0 0 1300 800"><defs><style>.cls-1,.cls-10,.cls-2,.cls-3{fill:#fff;}.cls-2{stroke:#fff;stroke-linecap:round;stroke-miterlimit:10;stroke-width:7px;}.cls-3{font-size:91.79px;font-family:Nunito-ExtraBold, Nunito ExtraBold;font-weight:800;}.cls-4{letter-spacing:0em;}.cls-5{letter-spacing:-0.01em;}.cls-6{letter-spacing:0em;}.cls-7{letter-spacing:0em;}.cls-8{letter-spacing:0em;}.cls-9{letter-spacing:-0.01em;}.cls-10{font-size:157.9px;font-family:FredokaOne-Regular, FredokaOne Regular;}.cls-11{letter-spacing:-0.04em;}.cls-12{letter-spacing:0em;}.cls-13{letter-spacing:-0.05em;}.cls-14{letter-spacing:0.01em;}.cls-15{letter-spacing:-0.01em;}.cls-16{letter-spacing:0.02em;}</style></defs><g id="CUSTOM-Group"><path class="cls-1" d="M423.21,238.35A230,230,0,1,0,490.58,401,228.48,228.48,0,0,0,423.21,238.35Zm-34.9,207.92a11.88,11.88,0,1,1-11.88-11.88A11.89,11.89,0,0,1,388.31,446.27ZM132.82,355.71a11.89,11.89,0,1,1,11.88,11.88A11.89,11.89,0,0,1,132.82,355.71ZM416,531.51V504.14a13.48,13.48,0,0,0-27,0v54q-7.86,6.43-16.35,12.08V522.11a13.48,13.48,0,0,0-26.95,0V585.3A201.41,201.41,0,0,1,317,596.06V362.77h34.76a38.83,38.83,0,1,0,2.09-27H303.53a13.47,13.47,0,0,0-13.48,13.48V601.9a204.78,204.78,0,0,1-29.48,2.15C148.6,604.05,57.51,513,57.51,401A203.49,203.49,0,0,1,60,369.18h48.27a38.84,38.84,0,1,0,0-26.95H66.19a203.14,203.14,0,0,1,39-71.76v17.26a13.48,13.48,0,0,0,27,0V243.86q7.86-6.44,16.35-12.08v38a13.48,13.48,0,1,0,27,0V216.68a202.52,202.52,0,0,1,25.6-9.83V443.3H168.45a38.83,38.83,0,1,0,0,27h46A13.49,13.49,0,0,0,228,456.78V200.57a202.69,202.69,0,0,1,32.61-2.64c112,0,203.05,91.09,203.05,203.06a204.49,204.49,0,0,1-2.49,31.8H412.85a38.84,38.84,0,1,0,0,27h42.09A203.06,203.06,0,0,1,416,531.51ZM389.1,340.23a11.88,11.88,0,1,1-11.88,11.88A11.9,11.9,0,0,1,389.1,340.23ZM143.91,456.78A11.88,11.88,0,1,1,132,444.9,11.89,11.89,0,0,1,143.91,456.78Z"/><path class="cls-1" d="M330.1,217.7a38.82,38.82,0,0,0-36.59,51.84l-43.15,36a13.49,13.49,0,0,0-4.83,10.35V487l-18.5,10a38.81,38.81,0,1,0,13.22,29.16,37.49,37.49,0,0,0-.39-5.45l25.55-13.81A13.47,13.47,0,0,0,272.48,495V322.22l38.32-32a38.83,38.83,0,1,0,19.3-72.52ZM189.54,526.1A11.88,11.88,0,1,1,201.42,538,11.89,11.89,0,0,1,189.54,526.1ZM318.22,256.54a11.88,11.88,0,1,1,11.88,11.88A11.89,11.89,0,0,1,318.22,256.54Z"/></g><g id="CUSTOM-Group-2" data-name="CUSTOM-Group"><line class="cls-2" x1="481.46" y1="375.29" x2="1192.32" y2="375.29"/><circle class="cls-2" cx="1236.37" cy="375.29" r="37.59"/></g><text class="cls-3" transform="translate(530.79 504.41)"><tspan class="cls-4">C</tspan><tspan class="cls-5" x="52.96" y="0">r</tspan><tspan class="cls-6" x="82.06" y="0">e</tspan><tspan class="cls-7" x="128.05" y="0">a</tspan><tspan x="171.93" y="0">ting i</tspan><tspan class="cls-8" x="366.99" y="0">n</tspan><tspan class="cls-9" x="417.57" y="0">t</tspan><tspan x="447.4" y="0">ellige</tspan><tspan class="cls-7" x="655.49" y="0">n</tspan><tspan x="706.07" y="0">t </tspan><tspan x="0" y="94.6" xml:space="preserve">       solutions</tspan></text><text class="cls-10" transform="translate(530.52 312.95)">M<tspan class="cls-11" x="126.95" y="0">L</tspan><tspan class="cls-12" x="194.84" y="0">-</tspan><tspan class="cls-13" x="243.31" y="0">F</tspan><tspan x="313.1" y="0">a</tspan><tspan class="cls-14" x="389.21" y="0">c</tspan><tspan class="cls-15" x="462" y="0">t</tspan><tspan x="513.31" y="0">o</tspan><tspan class="cls-16" x="600" y="0">r</tspan><tspan x="655.58" y="0">y</tspan></text></svg>